<svg xmlns="http://www.w3.org/2000/svg" xmlns:xlink="http://www.w3.org/1999/xlink" width="500" zoomAndPan="magnify" viewBox="0 0 375 374.999991" height="500" preserveAspectRatio="xMidYMid meet" version="1.0"><defs><g/><clipPath id="622646751e"><path d="M 7 111 L 145.625 111 L 145.625 273.332031 L 7 273.332031 Z M 7 111 " clip-rule="nonzero"/></clipPath><clipPath id="7f1819df19"><path d="M 7 101.039062 L 145.625 101.039062 L 145.625 125.859375 L 7 125.859375 Z M 7 101.039062 " clip-rule="nonzero"/></clipPath></defs><path fill="#fc5c50" d="M 9.121094 113.246094 C 9.121094 118.816406 13.636719 123.328125 19.203125 123.328125 L 143.558594 123.328125 L 143.558594 123.320312 L 143.558594 271.210938 L 19.203125 271.210938 C 13.636719 271.210938 9.121094 266.695312 9.121094 261.125 L 9.121094 113.246094 " fill-opacity="1" fill-rule="nonzero"/><path fill="#e0473b" d="M 19.203125 271.210938 L 38.339844 271.210938 L 38.339844 115.4375 L 9.121094 113.246094 L 9.121094 261.125 C 9.121094 266.695312 13.636719 271.210938 19.203125 271.210938 " fill-opacity="1" fill-rule="nonzero"/><g clip-path="url(#622646751e)"><path fill="#1e2735" d="M 11.246094 122.492188 L 11.246094 261.125 C 11.246094 265.515625 14.816406 269.085938 19.203125 269.085938 L 141.4375 269.085938 L 141.4375 125.449219 L 19.203125 125.449219 C 16.164062 125.449219 13.382812 124.335938 11.246094 122.492188 Z M 143.558594 273.332031 L 19.203125 273.332031 C 12.476562 273.332031 7 267.855469 7 261.125 L 7 113.246094 C 7 112.070312 7.949219 111.121094 9.121094 111.121094 C 10.296875 111.121094 11.246094 112.070312 11.246094 113.246094 C 11.246094 117.636719 14.816406 121.203125 19.203125 121.203125 L 143.386719 121.203125 C 144.589844 121.09375 145.683594 122.089844 145.683594 123.320312 C 145.683594 123.355469 145.679688 123.386719 145.679688 123.417969 L 145.683594 271.210938 C 145.683594 271.769531 145.457031 272.3125 145.058594 272.710938 C 144.660156 273.109375 144.121094 273.332031 143.558594 273.332031 " fill-opacity="1" fill-rule="nonzero"/></g><path fill="#f4f4f4" d="M 143.558594 103.164062 L 19.203125 103.164062 C 13.636719 103.164062 9.121094 107.679688 9.121094 113.246094 C 9.121094 118.816406 13.636719 123.328125 19.203125 123.328125 L 143.558594 123.328125 L 143.558594 123.320312 C 140.332031 116.992188 140.332031 109.5 143.558594 103.171875 L 143.558594 103.164062 " fill-opacity="1" fill-rule="nonzero"/><g clip-path="url(#7f1819df19)"><path fill="#1e2735" d="M 19.203125 105.285156 C 14.816406 105.285156 11.246094 108.855469 11.246094 113.246094 C 11.246094 117.636719 14.816406 121.203125 19.203125 121.203125 L 140.355469 121.203125 C 138.578125 116.058594 138.578125 110.433594 140.355469 105.285156 Z M 143.558594 125.449219 L 19.203125 125.449219 C 12.476562 125.449219 7 119.976562 7 113.246094 C 7 106.515625 12.476562 101.042969 19.203125 101.042969 L 143.558594 101.042969 C 144.226562 101.042969 144.859375 101.359375 145.261719 101.898438 C 145.660156 102.433594 145.785156 103.128906 145.59375 103.769531 C 145.554688 103.894531 145.507812 104.019531 145.449219 104.132812 C 142.539062 109.839844 142.539062 116.652344 145.449219 122.359375 C 145.507812 122.472656 145.554688 122.589844 145.589844 122.710938 C 145.785156 123.355469 145.660156 124.054688 145.261719 124.59375 C 144.859375 125.128906 144.230469 125.449219 143.558594 125.449219 " fill-opacity="1" fill-rule="nonzero"/></g><path fill="#1e2735" d="M 141.136719 118.78125 L 20.859375 118.78125 L 20.859375 114.535156 L 141.136719 114.535156 L 141.136719 118.78125 " fill-opacity="1" fill-rule="nonzero"/><path fill="#1e2735" d="M 141.136719 112.113281 L 20.859375 112.113281 L 20.859375 107.867188 L 141.136719 107.867188 L 141.136719 112.113281 " fill-opacity="1" fill-rule="nonzero"/><path fill="#fcd8ab" d="M 48.507812 147.035156 L 112.199219 147.035156 L 112.199219 186.78125 L 48.507812 186.78125 L 48.507812 147.035156 " fill-opacity="1" fill-rule="nonzero"/><path fill="#1e2735" d="M 50.628906 184.65625 L 110.078125 184.65625 L 110.078125 149.15625 L 50.628906 149.15625 Z M 112.199219 188.902344 L 48.507812 188.902344 C 47.332031 188.902344 46.382812 187.949219 46.382812 186.78125 L 46.382812 147.035156 C 46.382812 145.863281 47.332031 144.910156 48.507812 144.910156 L 112.199219 144.910156 C 113.371094 144.910156 114.320312 145.863281 114.320312 147.035156 L 114.320312 186.78125 C 114.320312 187.949219 113.371094 188.902344 112.199219 188.902344 " fill-opacity="1" fill-rule="nonzero"/><path fill="#1e2735" d="M 21.328125 259.660156 L 17.082031 259.660156 L 17.082031 124.796875 L 21.328125 124.796875 L 21.328125 259.660156 " fill-opacity="1" fill-rule="nonzero"/><g fill="#000000" fill-opacity="1"><g transform="translate(155.332201, 248.796692)"><g><path d="M 23.609375 0.828125 C 19.460938 0.828125 15.375 0.351562 11.34375 -0.59375 C 7.320312 -1.539062 4.085938 -2.773438 1.640625 -4.296875 L 6.859375 -16.203125 C 9.117188 -14.796875 11.800781 -13.679688 14.90625 -12.859375 C 18.019531 -12.035156 21.101562 -11.625 24.15625 -11.625 C 26.957031 -11.625 28.953125 -11.910156 30.140625 -12.484375 C 31.335938 -13.066406 31.9375 -13.90625 31.9375 -15 C 31.9375 -16.101562 31.21875 -16.882812 29.78125 -17.34375 C 28.351562 -17.800781 26.082031 -18.242188 22.96875 -18.671875 C 19 -19.148438 15.625 -19.785156 12.84375 -20.578125 C 10.070312 -21.378906 7.679688 -22.847656 5.671875 -24.984375 C 3.660156 -27.117188 2.65625 -30.109375 2.65625 -33.953125 C 2.65625 -37.117188 3.597656 -39.9375 5.484375 -42.40625 C 7.378906 -44.875 10.140625 -46.828125 13.765625 -48.265625 C 17.398438 -49.703125 21.75 -50.421875 26.8125 -50.421875 C 30.40625 -50.421875 33.972656 -50.050781 37.515625 -49.3125 C 41.054688 -48.582031 44.015625 -47.546875 46.390625 -46.203125 L 41.171875 -34.40625 C 36.785156 -36.84375 32.03125 -38.0625 26.90625 -38.0625 C 24.15625 -38.0625 22.140625 -37.738281 20.859375 -37.09375 C 19.578125 -36.457031 18.9375 -35.625 18.9375 -34.59375 C 18.9375 -33.425781 19.640625 -32.613281 21.046875 -32.15625 C 22.453125 -31.695312 24.769531 -31.226562 28 -30.75 C 32.082031 -30.132812 35.46875 -29.429688 38.15625 -28.640625 C 40.84375 -27.847656 43.175781 -26.398438 45.15625 -24.296875 C 47.132812 -22.191406 48.125 -19.25 48.125 -15.46875 C 48.125 -12.351562 47.175781 -9.5625 45.28125 -7.09375 C 43.394531 -4.625 40.609375 -2.6875 36.921875 -1.28125 C 33.234375 0.125 28.796875 0.828125 23.609375 0.828125 Z M 23.609375 0.828125 "/></g></g></g><g fill="#000000" fill-opacity="1"><g transform="translate(196.417158, 248.796692)"><g><path d="M 39.796875 -2.015625 C 38.335938 -1.097656 36.554688 -0.394531 34.453125 0.09375 C 32.347656 0.582031 30.101562 0.828125 27.71875 0.828125 C 21.257812 0.828125 16.289062 -0.753906 12.8125 -3.921875 C 9.332031 -7.097656 7.59375 -11.828125 7.59375 -18.109375 L 7.59375 -34.765625 L 0.359375 -34.765625 L 0.359375 -47.765625 L 7.59375 -47.765625 L 7.59375 -60.671875 L 24.984375 -60.671875 L 24.984375 -47.765625 L 36.328125 -47.765625 L 36.328125 -34.765625 L 24.984375 -34.765625 L 24.984375 -18.296875 C 24.984375 -16.523438 25.453125 -15.132812 26.390625 -14.125 C 27.335938 -13.125 28.601562 -12.625 30.1875 -12.625 C 32.207031 -12.625 33.976562 -13.144531 35.5 -14.1875 Z M 39.796875 -2.015625 "/></g></g></g><g fill="#000000" fill-opacity="1"><g transform="translate(228.351779, 248.796692)"><g><path d="M 30.46875 0.828125 C 25.164062 0.828125 20.378906 -0.269531 16.109375 -2.46875 C 11.835938 -4.664062 8.492188 -7.710938 6.078125 -11.609375 C 3.671875 -15.515625 2.46875 -19.941406 2.46875 -24.890625 C 2.46875 -29.765625 3.671875 -34.15625 6.078125 -38.0625 C 8.492188 -41.96875 11.820312 -45.003906 16.0625 -47.171875 C 20.300781 -49.335938 25.101562 -50.421875 30.46875 -50.421875 C 35.832031 -50.421875 40.648438 -49.335938 44.921875 -47.171875 C 49.191406 -45.003906 52.515625 -41.984375 54.890625 -38.109375 C 57.273438 -34.234375 58.46875 -29.828125 58.46875 -24.890625 C 58.46875 -19.941406 57.273438 -15.515625 54.890625 -11.609375 C 52.515625 -7.710938 49.191406 -4.664062 44.921875 -2.46875 C 40.648438 -0.269531 35.832031 0.828125 30.46875 0.828125 Z M 30.46875 -13 C 33.519531 -13 36.019531 -14.050781 37.96875 -16.15625 C 39.925781 -18.257812 40.90625 -21.171875 40.90625 -24.890625 C 40.90625 -28.546875 39.925781 -31.410156 37.96875 -33.484375 C 36.019531 -35.554688 33.519531 -36.59375 30.46875 -36.59375 C 27.414062 -36.59375 24.910156 -35.554688 22.953125 -33.484375 C 21.003906 -31.410156 20.03125 -28.546875 20.03125 -24.890625 C 20.03125 -21.171875 21.003906 -18.257812 22.953125 -16.15625 C 24.910156 -14.050781 27.414062 -13 30.46875 -13 Z M 30.46875 -13 "/></g></g></g><g fill="#000000" fill-opacity="1"><g transform="translate(280.325617, 248.796692)"><g><path d="M 22.140625 -43.640625 C 23.910156 -45.898438 26.210938 -47.59375 29.046875 -48.71875 C 31.890625 -49.851562 35.140625 -50.421875 38.796875 -50.421875 L 38.796875 -34.765625 C 37.210938 -34.953125 35.898438 -35.046875 34.859375 -35.046875 C 31.140625 -35.046875 28.226562 -34.035156 26.125 -32.015625 C 24.019531 -30.003906 22.96875 -26.925781 22.96875 -22.78125 L 22.96875 0 L 5.578125 0 L 5.578125 -49.59375 L 22.140625 -49.59375 Z M 22.140625 -43.640625 "/></g></g></g><g fill="#000000" fill-opacity="1"><g transform="translate(311.894247, 248.796692)"><g><path d="M 56.265625 -24.703125 C 56.265625 -24.578125 56.175781 -23.144531 56 -20.40625 L 19.953125 -20.40625 C 20.679688 -17.84375 22.097656 -15.875 24.203125 -14.5 C 26.304688 -13.125 28.941406 -12.4375 32.109375 -12.4375 C 34.492188 -12.4375 36.554688 -12.769531 38.296875 -13.4375 C 40.035156 -14.113281 41.785156 -15.21875 43.546875 -16.75 L 52.703125 -7.234375 C 47.878906 -1.859375 40.832031 0.828125 31.5625 0.828125 C 25.769531 0.828125 20.675781 -0.269531 16.28125 -2.46875 C 11.894531 -4.664062 8.492188 -7.710938 6.078125 -11.609375 C 3.671875 -15.515625 2.46875 -19.941406 2.46875 -24.890625 C 2.46875 -29.765625 3.640625 -34.140625 5.984375 -38.015625 C 8.335938 -41.890625 11.585938 -44.925781 15.734375 -47.125 C 19.878906 -49.320312 24.546875 -50.421875 29.734375 -50.421875 C 34.679688 -50.421875 39.164062 -49.394531 43.1875 -47.34375 C 47.21875 -45.300781 50.40625 -42.34375 52.75 -38.46875 C 55.09375 -34.601562 56.265625 -30.015625 56.265625 -24.703125 Z M 29.828125 -38.0625 C 27.140625 -38.0625 24.894531 -37.296875 23.09375 -35.765625 C 21.300781 -34.242188 20.160156 -32.171875 19.671875 -29.546875 L 39.984375 -29.546875 C 39.492188 -32.171875 38.347656 -34.242188 36.546875 -35.765625 C 34.753906 -37.296875 32.515625 -38.0625 29.828125 -38.0625 Z M 29.828125 -38.0625 "/></g></g></g><g fill="#000000" fill-opacity="1"><g transform="translate(155.332201, 183.393027)"><g><path d="M 33.859375 -48.5 C 38.367188 -48.5 42.453125 -47.472656 46.109375 -45.421875 C 49.773438 -43.378906 52.644531 -40.5 54.71875 -36.78125 C 56.789062 -33.0625 57.828125 -28.820312 57.828125 -24.0625 C 57.828125 -19.300781 56.789062 -15.0625 54.71875 -11.34375 C 52.644531 -7.625 49.773438 -4.726562 46.109375 -2.65625 C 42.453125 -0.582031 38.367188 0.453125 33.859375 0.453125 C 29.828125 0.453125 26.207031 -0.398438 23 -2.109375 C 19.800781 -3.816406 17.226562 -6.285156 15.28125 -9.515625 L 15.28125 0 L 9.0625 0 L 9.0625 -67.890625 L 15.5625 -67.890625 L 15.5625 -38.984375 C 17.570312 -42.085938 20.144531 -44.445312 23.28125 -46.0625 C 26.425781 -47.6875 29.953125 -48.5 33.859375 -48.5 Z M 33.390625 -5.3125 C 36.753906 -5.3125 39.804688 -6.085938 42.546875 -7.640625 C 45.296875 -9.191406 47.445312 -11.398438 49 -14.265625 C 50.550781 -17.140625 51.328125 -20.40625 51.328125 -24.0625 C 51.328125 -27.71875 50.550781 -30.976562 49 -33.84375 C 47.445312 -36.71875 45.296875 -38.929688 42.546875 -40.484375 C 39.804688 -42.046875 36.753906 -42.828125 33.390625 -42.828125 C 29.984375 -42.828125 26.921875 -42.046875 24.203125 -40.484375 C 21.484375 -38.929688 19.347656 -36.71875 17.796875 -33.84375 C 16.242188 -30.976562 15.46875 -27.71875 15.46875 -24.0625 C 15.46875 -20.40625 16.242188 -17.140625 17.796875 -14.265625 C 19.347656 -11.398438 21.484375 -9.191406 24.203125 -7.640625 C 26.921875 -6.085938 29.984375 -5.3125 33.390625 -5.3125 Z M 33.390625 -5.3125 "/></g></g></g><g fill="#000000" fill-opacity="1"><g transform="translate(208.404116, 183.393027)"><g><path d="M 28.734375 0.453125 C 24.097656 0.453125 19.914062 -0.597656 16.1875 -2.703125 C 12.46875 -4.804688 9.539062 -7.71875 7.40625 -11.4375 C 5.269531 -15.15625 4.203125 -19.363281 4.203125 -24.0625 C 4.203125 -28.757812 5.269531 -32.96875 7.40625 -36.6875 C 9.539062 -40.40625 12.46875 -43.300781 16.1875 -45.375 C 19.914062 -47.457031 24.097656 -48.5 28.734375 -48.5 C 33.367188 -48.5 37.546875 -47.457031 41.265625 -45.375 C 44.984375 -43.300781 47.894531 -40.40625 50 -36.6875 C 52.101562 -32.96875 53.15625 -28.757812 53.15625 -24.0625 C 53.15625 -19.363281 52.101562 -15.15625 50 -11.4375 C 47.894531 -7.71875 44.984375 -4.804688 41.265625 -2.703125 C 37.546875 -0.597656 33.367188 0.453125 28.734375 0.453125 Z M 28.734375 -5.3125 C 32.148438 -5.3125 35.210938 -6.085938 37.921875 -7.640625 C 40.640625 -9.191406 42.757812 -11.398438 44.28125 -14.265625 C 45.8125 -17.140625 46.578125 -20.40625 46.578125 -24.0625 C 46.578125 -27.71875 45.8125 -30.976562 44.28125 -33.84375 C 42.757812 -36.71875 40.640625 -38.929688 37.921875 -40.484375 C 35.210938 -42.046875 32.148438 -42.828125 28.734375 -42.828125 C 25.316406 -42.828125 22.25 -42.046875 19.53125 -40.484375 C 16.820312 -38.929688 14.6875 -36.71875 13.125 -33.84375 C 11.570312 -30.976562 10.796875 -27.71875 10.796875 -24.0625 C 10.796875 -20.40625 11.570312 -17.140625 13.125 -14.265625 C 14.6875 -11.398438 16.820312 -9.191406 19.53125 -7.640625 C 22.25 -6.085938 25.316406 -5.3125 28.734375 -5.3125 Z M 28.734375 -5.3125 "/></g></g></g><g fill="#000000" fill-opacity="1"><g transform="translate(256.809352, 183.393027)"><g><path d="M 28.734375 0.453125 C 24.097656 0.453125 19.914062 -0.597656 16.1875 -2.703125 C 12.46875 -4.804688 9.539062 -7.71875 7.40625 -11.4375 C 5.269531 -15.15625 4.203125 -19.363281 4.203125 -24.0625 C 4.203125 -28.757812 5.269531 -32.96875 7.40625 -36.6875 C 9.539062 -40.40625 12.46875 -43.300781 16.1875 -45.375 C 19.914062 -47.457031 24.097656 -48.5 28.734375 -48.5 C 33.367188 -48.5 37.546875 -47.457031 41.265625 -45.375 C 44.984375 -43.300781 47.894531 -40.40625 50 -36.6875 C 52.101562 -32.96875 53.15625 -28.757812 53.15625 -24.0625 C 53.15625 -19.363281 52.101562 -15.15625 50 -11.4375 C 47.894531 -7.71875 44.984375 -4.804688 41.265625 -2.703125 C 37.546875 -0.597656 33.367188 0.453125 28.734375 0.453125 Z M 28.734375 -5.3125 C 32.148438 -5.3125 35.210938 -6.085938 37.921875 -7.640625 C 40.640625 -9.191406 42.757812 -11.398438 44.28125 -14.265625 C 45.8125 -17.140625 46.578125 -20.40625 46.578125 -24.0625 C 46.578125 -27.71875 45.8125 -30.976562 44.28125 -33.84375 C 42.757812 -36.71875 40.640625 -38.929688 37.921875 -40.484375 C 35.210938 -42.046875 32.148438 -42.828125 28.734375 -42.828125 C 25.316406 -42.828125 22.25 -42.046875 19.53125 -40.484375 C 16.820312 -38.929688 14.6875 -36.71875 13.125 -33.84375 C 11.570312 -30.976562 10.796875 -27.71875 10.796875 -24.0625 C 10.796875 -20.40625 11.570312 -17.140625 13.125 -14.265625 C 14.6875 -11.398438 16.820312 -9.191406 19.53125 -7.640625 C 22.25 -6.085938 25.316406 -5.3125 28.734375 -5.3125 Z M 28.734375 -5.3125 "/></g></g></g><g fill="#000000" fill-opacity="1"><g transform="translate(305.214591, 183.393027)"><g><path d="M 26.90625 -24.15625 L 15.5625 -13.71875 L 15.5625 0 L 9.0625 0 L 9.0625 -67.890625 L 15.5625 -67.890625 L 15.5625 -21.875 L 44.28125 -48.125 L 52.34375 -48.125 L 31.75 -28.453125 L 54.265625 0 L 46.296875 0 Z M 26.90625 -24.15625 "/></g></g></g></svg>